<svg width="120" height="120" viewBox="0 0 120 120" fill="none" xmlns="http://www.w3.org/2000/svg">
<g id="Ok">
<path id="Vector" d="M67.9 14.4499C66.5739 13.1072 64.7688 12.3463 62.8817 12.3346C60.9946 12.3229 59.1802 13.0613 57.8375 14.3874C56.4948 15.7135 55.734 17.5186 55.7222 19.4057C55.7105 21.2928 56.4489 23.1072 57.775 24.4499C65.0199 31.7915 70.4402 40.7313 73.6 50.5499C69.4627 46.5212 64.1622 43.8972 58.45 43.0499C54.2286 42.3234 49.9012 42.498 45.752 43.5623C41.6028 44.6265 37.7256 46.5563 34.375 49.2249C33.4526 50.0462 32.7596 51.0932 32.3639 52.2632C31.9681 53.4332 31.8834 54.6859 32.1178 55.8986C32.3523 57.1112 32.8979 58.242 33.7012 59.1802C34.5045 60.1183 35.5379 60.8315 36.7 61.2499C37.9955 61.7444 39.3983 61.8892 40.7675 61.6698C42.1366 61.4504 43.4239 60.8744 44.5 59.9999C46.3163 58.7847 48.366 57.9615 50.5182 57.5827C52.6704 57.2039 54.878 57.2779 57 57.7999C60.4014 58.5458 63.3672 60.6124 65.2449 63.545C67.1226 66.4776 67.7584 70.036 67.0125 73.4374C66.2666 76.8388 64.2 79.8046 61.2674 81.6823C58.3348 83.56 54.7764 84.1958 51.375 83.4499C48.4147 82.7773 45.7282 81.2223 43.6704 78.9905C41.6127 76.7586 40.2805 73.9549 39.85 70.9499C39.7924 69.23 39.1603 67.579 38.0546 66.2604C36.949 64.9417 35.4335 64.0315 33.75 63.6749C32.7501 63.3803 31.6961 63.3187 30.6687 63.4948C29.6413 63.6708 28.6679 64.0798 27.8231 64.6905C26.9783 65.3011 26.2847 66.0972 25.7953 67.0175C25.3059 67.9379 25.0339 68.9581 25 69.9999C25 87.7749 39.675 108.825 62.5 105.625C81.55 102.925 88 97.4999 90.575 73.4499C92.1 55.4999 84.625 31.6499 67.9 14.4499Z" fill="#FFE500"/>
<path id="Vector_2" d="M58.6004 22.9251C59.9556 21.743 61.71 21.1212 63.5072 21.1862C65.3043 21.2512 67.0093 21.9981 68.2754 23.2751C80.6716 36.1488 88.5654 52.6907 90.7754 70.4251C91.2754 52.9251 83.7254 30.7001 67.9254 14.4501C67.2902 13.7656 66.5263 13.2129 65.6774 12.8236C64.8286 12.4343 63.9113 12.216 62.9781 12.1812C61.0934 12.1109 59.2579 12.7922 57.8754 14.0751C56.493 15.3581 55.6768 17.1377 55.6065 19.0225C55.5362 20.9072 56.2174 22.7427 57.5004 24.1251C57.8201 23.6844 58.1891 23.2818 58.6004 22.9251Z" fill="#FFF48C"/>
<path id="Vector_3" opacity="0.15" d="M31.25 113.75C31.25 114.745 34.279 115.698 39.6707 116.402C45.0624 117.105 52.375 117.5 60 117.5C67.625 117.5 74.9377 117.105 80.3293 116.402C85.721 115.698 88.75 114.745 88.75 113.75C88.75 112.755 85.721 111.802 80.3293 111.098C74.9377 110.395 67.625 110 60 110C52.375 110 45.0624 110.395 39.6707 111.098C34.279 111.802 31.25 112.755 31.25 113.75Z" fill="#45413C"/>
<path id="Vector_4" d="M58.4997 43.0251C64.1586 43.9024 69.4025 46.5243 73.4997 50.5251C70.7309 41.9231 66.2206 33.9832 60.2497 27.2001C59.7208 26.594 59.0637 26.113 58.326 25.7921C57.5883 25.4712 56.7885 25.3184 55.9844 25.3447C55.1804 25.371 54.3923 25.5758 53.6771 25.9443C52.962 26.3128 52.3378 26.8357 51.8497 27.4751C51.1019 28.4702 50.7209 29.693 50.771 30.9366C50.8211 32.1803 51.2993 33.3685 52.1247 34.3001C54.5224 36.9991 56.657 39.9207 58.4997 43.0251Z" fill="#FFE500"/>
<path id="Vector_5" d="M51.4248 28.3001C52.404 28.0577 53.4311 28.0905 54.3928 28.3949C55.3545 28.6993 56.2135 29.2634 56.8748 30.0251C61.065 34.7813 64.5429 40.1202 67.1998 45.8751C69.5428 47.1139 71.6977 48.6795 73.5998 50.5251C70.831 41.9231 66.3207 33.9832 60.3498 27.2001C59.8209 26.594 59.1638 26.113 58.4261 25.7921C57.6884 25.4712 56.8886 25.3184 56.0846 25.3447C55.2805 25.371 54.4924 25.5758 53.7773 25.9443C53.0622 26.3128 52.4379 26.8357 51.9498 27.4751C51.757 27.7384 51.5817 28.014 51.4248 28.3001Z" fill="#EBCB00"/>
<path id="Vector_6" d="M58.4997 43.0251C64.1586 43.9024 69.4025 46.5243 73.4997 50.5251C70.7309 41.9231 66.2206 33.9832 60.2497 27.2001C59.7208 26.594 59.0637 26.113 58.326 25.7921C57.5883 25.4712 56.7885 25.3184 55.9844 25.3447C55.1804 25.371 54.3923 25.5758 53.6771 25.9443C52.962 26.3128 52.3378 26.8357 51.8497 27.4751C51.1019 28.4702 50.7209 29.693 50.771 30.9366C50.8211 32.1803 51.2993 33.3685 52.1247 34.3001C54.5224 36.9991 56.657 39.9207 58.4997 43.0251Z" stroke="#45413C" stroke-linecap="round" stroke-linejoin="round"/>
<path id="Vector_7" d="M58.4498 51.925C64.2748 52.775 76.6498 57.85 80.7248 61.8C79.0946 56.9264 76.1534 52.5961 72.2241 49.2842C68.2947 45.9722 63.529 43.8066 58.4498 43.025C54.2284 42.2985 49.901 42.4731 45.7518 43.5374C41.6026 44.6016 37.7255 46.5314 34.3748 49.2C33.0286 50.4113 32.1902 52.0869 32.0279 53.8907C31.8656 55.6944 32.3914 57.4928 33.4998 58.925C39.3248 53.05 49.2248 50.575 58.4498 51.925Z" fill="#FFF48C"/>
<path id="Vector_8" d="M73.5996 50.5249C76.297 53.1132 78.4462 56.2177 79.9193 59.6536C81.3925 63.0895 82.1594 66.7866 82.1746 70.5249" stroke="#45413C" stroke-linecap="round" stroke-linejoin="round"/>
<path id="Vector_9" d="M67.9 14.4499C66.5739 13.1072 64.7688 12.3463 62.8817 12.3346C60.9946 12.3229 59.1802 13.0613 57.8375 14.3874C56.4948 15.7135 55.734 17.5186 55.7222 19.4057C55.7105 21.2928 56.4489 23.1072 57.775 24.4499C65.0199 31.7915 70.4402 40.7313 73.6 50.5499C69.4627 46.5212 64.1622 43.8972 58.45 43.0499C54.2286 42.3234 49.9012 42.498 45.752 43.5623C41.6028 44.6265 37.7256 46.5563 34.375 49.2249C33.4526 50.0462 32.7596 51.0932 32.3639 52.2632C31.9681 53.4332 31.8834 54.6859 32.1178 55.8986C32.3523 57.1112 32.8979 58.242 33.7012 59.1802C34.5045 60.1183 35.5379 60.8315 36.7 61.2499C37.9955 61.7444 39.3983 61.8892 40.7675 61.6698C42.1366 61.4504 43.4239 60.8744 44.5 59.9999C46.3163 58.7847 48.366 57.9615 50.5182 57.5827C52.6704 57.2039 54.878 57.2779 57 57.7999C60.4014 58.5458 63.3672 60.6124 65.2449 63.545C67.1226 66.4776 67.7584 70.036 67.0125 73.4374C66.2666 76.8388 64.2 79.8045 61.2674 81.6823C58.3348 83.56 54.7764 84.1958 51.375 83.4499C48.4147 82.7773 45.7282 81.2223 43.6704 78.9905C41.6127 76.7586 40.2805 73.9549 39.85 70.9499C39.7924 69.23 39.1603 67.579 38.0546 66.2604C36.949 64.9417 35.4335 64.0315 33.75 63.6749C32.7501 63.3803 31.6961 63.3187 30.6687 63.4948C29.6413 63.6708 28.6679 64.0798 27.8231 64.6905C26.9783 65.3011 26.2847 66.0972 25.7953 67.0175C25.3059 67.9378 25.0339 68.9581 25 69.9999C25 87.7749 39.675 108.825 62.5 105.625C81.55 102.925 88 97.4999 90.575 73.4499C92.1 55.4999 84.625 31.6499 67.9 14.4499Z" stroke="#45413C" stroke-linecap="round" stroke-linejoin="round"/>
</g>
</svg>
