<svg width="1280" height="199" viewBox="0 0 1280 199" fill="none" xmlns="http://www.w3.org/2000/svg">
<g clip-path="url(#clip0_931_19703)">
<g clip-path="url(#clip1_931_19703)">
<rect width="1283" height="952.181" transform="translate(-2 -375.862)" fill="#1A1A1A"/>
<path fill-rule="evenodd" clip-rule="evenodd" d="M-36.477 -455.165C-34.4908 -453.813 -32.6068 -452.252 -30.5004 -451.139C-6.1046 -438.264 18.2823 -425.368 42.7627 -412.665C56.1572 -405.713 67.2497 -396.256 74.8945 -382.788C88.1667 -359.413 105.474 -340.118 126.173 -323.224C146.587 -306.565 163.002 -285.744 173.972 -260.803C177.792 -252.122 182.574 -243.856 187.369 -235.685C193.971 -224.438 197.083 -212.234 198.15 -199.281C199.296 -185.382 201.235 -171.523 201.685 -157.607C202.161 -142.917 201.329 -128.185 200.977 -113.473C200.9 -110.226 200.101 -106.98 200.208 -103.754C201.171 -74.9414 190.359 -48.7934 182.907 -21.9005C181.849 -18.0885 180.249 -14.1754 177.967 -11.0302C166.301 5.05451 164.482 24.1373 161.481 43.0407C156.75 72.8719 156.645 102.88 157.439 132.911C157.702 142.761 159.759 152.555 160.96 162.377C162.001 170.893 163.478 179.388 163.885 187.939C164.359 197.86 164.257 207.854 163.687 217.775C163.243 225.555 161.81 233.285 160.629 241.005C158.783 253.057 155.685 265.029 155.113 277.136C154.381 292.655 148.947 306.537 144.307 320.828C140.257 333.308 133.989 344.512 126.56 355.076C122.61 360.693 120.652 366.832 120.59 373.798C120.494 384.51 120.354 395.237 119.749 405.928C119.122 417.029 106.424 427.253 95.8627 425.002C93.5428 424.505 90.5645 421.574 89.9417 419.192C84.0474 396.608 84.3232 374.69 96.7391 353.927C102.836 343.726 108.23 333.021 113.19 322.176C115.258 317.651 115.768 312.211 116.286 307.114C117.423 295.908 118.397 284.67 118.931 273.418C120.27 245.146 121.658 216.86 118.564 188.596C117.26 176.682 109.008 172.16 99.4015 179.22C94.9018 182.529 90.7336 188.001 89.0231 193.379C81.8476 215.956 77.3679 239.166 75.6041 262.973C74.8656 272.956 73.2952 283.15 70.2636 292.62C64.6918 310.016 57.8165 326.969 51.3461 344.054C50.1428 347.234 48.8171 350.641 46.6574 353.111C38.8057 362.084 34.5596 373.102 29.1568 383.537C24.6482 392.244 18.6827 400.174 13.0686 408.23C5.11465 419.647 -1.84733 431.472 -4.93907 445.43C-5.83768 449.479 -7.69271 453.353 -9.44989 457.137C-15.4488 470.056 -21.6878 482.857 -27.6734 495.785C-35.9944 513.755 -45.0872 530.953 -58.1748 546.095C-72.1788 562.297 -84.1565 580.361 -97.2375 597.432C-101.128 602.511 -105.438 607.355 -110.112 611.664C-125.955 626.27 -140.21 642.849 -158.812 654.055C-160.647 655.161 -162.796 656.391 -164.806 656.405C-190.179 656.566 -215.551 656.52 -240.925 656.497C-241.811 656.497 -242.696 656.193 -244.402 655.881C-241.702 645.737 -240.814 634.956 -233.766 627.227C-221.474 613.749 -208.903 600.423 -195.424 588.247C-177.216 571.797 -157.847 556.724 -139.336 540.616C-125.63 528.688 -111.317 517.147 -99.4484 503.423C-87.5174 489.628 -75.8778 474.893 -71.8919 455.702C-65.2569 423.751 -56.2174 392.159 -52.0558 359.886C-48.4125 331.623 -49.6047 302.633 -49.5446 273.961C-49.4846 244.693 -50.1207 215.409 -51.1505 186.159C-52.2204 155.769 -52.7987 125.251 -56.2152 95.1045C-58.0035 79.3279 -64.8498 64.0065 -70.4439 48.8897C-76.703 31.9819 -86.194 16.3432 -88.3915 -2.12107C-90.1287 -16.7343 -92.9402 -31.2602 -93.8343 -45.9172C-94.8086 -61.8915 -100.914 -74.9414 -110.87 -86.6371C-113.67 -89.9248 -116.262 -93.4816 -118.475 -97.2154C-135.046 -125.193 -159.695 -143.796 -186.549 -159.742C-190.626 -162.163 -195.49 -164.021 -200.13 -164.426C-216.554 -165.856 -229.951 -173.317 -242.398 -184.001C-254.698 -194.561 -266.934 -205.01 -274.87 -219.685C-277.568 -224.677 -280.159 -229.785 -282.221 -235.08C-288.24 -250.517 -297.277 -263.077 -312.127 -270.517C-322.421 -275.674 -332.55 -281.192 -342.953 -286.1C-349.893 -289.374 -354.615 -294.674 -358.363 -301.222C-365.129 -313.046 -372.654 -324.116 -385.459 -329.814C-391.736 -332.605 -398.057 -335.286 -404.358 -338.019V-423.007C-401.304 -419.694 -398.442 -416.158 -395.143 -413.13C-391.733 -409.998 -388.27 -406.476 -384.191 -404.653C-366.877 -396.914 -349.408 -389.527 -331.823 -382.466C-324.429 -379.498 -316.279 -378.443 -309.05 -375.162C-285.42 -364.436 -268.157 -345.593 -253.666 -324.429C-245.123 -311.949 -235.649 -301.783 -222.05 -295.911C-213.511 -292.223 -204.888 -288.749 -196.322 -285.121C-181.099 -278.674 -166.279 -270.984 -149.655 -268.836C-130.097 -266.312 -113.141 -258.667 -99.3372 -243.548C-91.6279 -235.103 -82.2926 -228.252 -74.4898 -219.885C-60.3657 -204.746 -46.7042 -189.132 -33.1562 -173.436C-29.5329 -169.24 -26.083 -164.398 -24.1568 -159.216C-16.9479 -139.8 -8.59133 -120.733 -5.80655 -99.8157C-2.38339 -74.0953 2.61012 -48.5106 4.45626 -22.6776C6.07553 -0.019672 4.95671 22.7302 10.9867 45.0341C17.1101 67.6897 16.5429 90.3844 8.20192 112.645C6.55151 117.045 6.01769 121.915 5.17246 126.607C0.528181 152.378 1.86721 178.469 1.46684 204.46C1.4179 207.635 2.32096 210.843 2.91484 214.009C3.86016 219.053 5.40379 224.028 5.83085 229.112C6.79174 240.543 7.43232 252.016 7.82379 263.484C8.46883 282.323 9.60768 301.228 3.46646 320.53C5.4216 319.534 6.69611 319.224 7.51686 318.421C23.8831 302.389 34.4839 283.217 37.5201 259.844C38.5521 251.907 40.0869 244.04 41.4192 236.147C42.022 232.574 43.123 229.029 43.2631 225.44C44.0372 205.771 51.0258 187.757 57.0336 169.491C57.9011 166.849 59.914 164.623 61.2797 162.136C65.5548 154.346 70.8663 146.918 73.6934 138.595C76.2736 131.005 76.7874 122.455 77.0854 114.284C78.0441 87.8416 80.0326 61.6752 87.6285 36.1295C95.6092 9.2895 103.659 -17.608 109.818 -44.9263C115.205 -68.8073 115.176 -92.9068 106.014 -116.588C100.761 -130.169 97.006 -144.564 94.2523 -158.935C90.2687 -179.743 87.4683 -200.816 84.8059 -221.863C83.1021 -235.338 78.6157 -247.286 68.711 -256.179C48.6614 -274.182 32.6089 -296.297 10.3217 -312.271C-5.87327 -323.88 -18.6984 -340.505 -33.0561 -354.86C-40.1982 -362.002 -46.6308 -370.265 -54.7516 -375.93C-73.0129 -388.669 -90.9339 -401.645 -107.91 -416.293C-121.119 -427.69 -136.816 -434.84 -155.024 -435.753C-181.582 -437.084 -207.893 -435.843 -234.29 -432.934C-264.928 -429.557 -294.299 -432.838 -318.779 -455.165C-224.679 -455.165 -130.577 -455.165 -36.477 -455.165Z" stroke="#8CFB53" stroke-width="1.30194"/>
<path fill-rule="evenodd" clip-rule="evenodd" d="M1197.77 -455.164C1190.49 -414.655 1193.07 -373.58 1191.3 -332.76C1190.34 -310.613 1190.7 -288.405 1189.79 -266.253C1188.98 -246.386 1187.36 -226.55 1185.84 -206.722C1185.51 -202.387 1184.68 -197.886 1183.08 -193.896C1171.1 -164.128 1168.34 -132.921 1168.71 -101.119C1168.89 -85.2491 1169.34 -69.3147 1168.19 -53.5229C1167.36 -42.0158 1163.44 -30.7799 1162.08 -19.2751C1158.95 7.26993 1156.42 33.8287 1156.44 60.7047C1156.47 102.019 1156.14 143.404 1153.74 184.624C1152.53 205.406 1148.14 226.82 1136.43 244.465C1127.32 258.204 1115.4 269.991 1104.42 282.365C1092.94 295.318 1081.14 307.965 1069.41 320.688C1063.54 327.053 1057.69 333.448 1051.56 339.547C1040.63 350.435 1030.47 361.867 1021.28 374.505C1011.21 388.336 998.871 400.379 987.755 413.41C983.261 418.678 978.693 424.106 975.37 430.169C969.124 441.571 960.011 450.182 951.276 459.259C947.766 462.907 944.499 466.842 941.436 470.902C930.511 485.367 919.44 499.729 909.011 514.572C904.159 521.477 899.838 529.044 896.689 536.915C885.946 563.754 876 590.936 865.388 617.835C861.345 628.082 855.644 637.665 852.003 648.039C849.621 654.83 846.455 656.668 839.725 656.512C818.265 656.011 796.787 656.326 775.313 656.324C772.922 656.324 770.528 656.324 767.456 656.324C767.254 651.837 767.127 647.715 766.869 643.601C766.236 633.468 763.733 631.418 755.258 635.976C745.798 641.065 736.985 647.437 727.839 653.156C725.851 654.397 723.642 656.112 721.519 656.137C701.913 656.367 682.302 656.273 661.271 656.273C663.173 653.917 664.305 652.398 665.554 650.988C681.077 633.493 695.051 614.927 706.987 594.478C717.805 575.949 732.724 560.58 748.079 545.806C763.5 530.971 778.705 515.887 793.702 500.594C807.038 486.995 821.206 474.614 836.569 463.438C849.685 453.899 861.679 442.69 874.004 432.015C899.938 409.553 925.69 386.862 951.656 364.439C980.889 339.195 1010.37 314.261 1039.51 288.9C1044.83 284.266 1048.93 278.156 1053.73 272.855C1064.6 260.852 1075.23 248.584 1086.57 237.065C1098.43 225.013 1105.02 209.67 1110.78 194.397C1116.45 179.392 1119.74 163.207 1122.28 147.236C1124.12 135.655 1123.21 123.578 1123.23 111.721C1123.28 74.7886 1122.88 37.8491 1127.35 1.09111C1127.81 -2.6856 1127.72 -6.55425 1127.6 -10.3723C1127.57 -11.4734 1126.77 -12.8825 1125.9 -13.4916C1125.43 -13.8203 1123.74 -13.025 1123.13 -12.2756C1105.3 9.38239 1087.53 31.2312 1083.52 60.7369C1079.88 87.5026 1071.79 112.744 1061.71 137.531C1056.34 150.734 1051.42 164.25 1047.74 178.036C1043.1 195.39 1034.66 210.249 1024.41 224.517C1017.7 233.856 1010.96 242.384 1000.48 247.715C995.05 250.473 990.722 255.804 986.321 260.406C976.806 270.361 965.241 277.057 953.521 283.673C928.82 297.619 911.089 319.121 895.395 342.549C888.96 352.155 881.094 359.814 872.21 366.91C861.583 375.397 851.337 384.532 841.777 394.28C822.69 413.738 802.181 430.845 778.214 443.748C765.885 450.386 754.984 459.875 743.48 468.136C740.444 470.316 737.723 472.998 734.578 474.977C722.26 482.728 712.053 492.691 702.944 504.283C690.946 519.548 678.13 534.133 665.507 548.866C662.462 552.422 658.786 555.396 655.414 558.653C649.613 564.255 643.818 569.868 638.03 575.484C637.626 575.875 637.341 576.422 636.897 576.739C613.467 593.425 596.226 617.908 570.933 632.36C563.903 636.378 558.2 642.801 551.556 647.628C543.734 653.31 535.315 656.689 525.221 656.51C496.168 655.995 467.102 656.317 438.042 656.31C435.884 656.308 433.728 656.31 431.572 656.31C431.241 655.65 430.91 654.99 430.578 654.331C440.874 646.246 451.052 637.996 461.498 630.123C471.018 622.952 480.694 615.984 490.545 609.311C499.951 602.942 509.662 597.055 519.255 590.984C549.782 571.664 579.291 551.18 601.887 521.606C610.684 510.092 621.1 499.902 630.771 489.103C640.546 478.184 649.662 466.514 660.246 456.51C674.678 442.867 690.095 430.314 705.347 417.623C717.874 407.201 730.297 396.519 743.626 387.276C764.751 372.629 784.624 356.488 802.779 338.147C808.696 332.17 813.651 325.123 818.729 318.314C830.694 302.274 842.937 286.67 857.213 272.534C869.131 260.735 878.371 246.065 888.962 232.806C894.006 226.491 899.383 220.457 904.695 214.373C914.97 202.601 924.892 190.458 935.699 179.229C968.555 145.086 985.419 103.29 991.267 56.289C993.927 34.9183 1002.94 17.3404 1016.64 1.41981C1022.1 -4.9337 1025.36 -13.4411 1029.08 -21.245C1036.75 -37.3403 1043.57 -53.8884 1051.66 -69.7538C1059.66 -85.4583 1069.08 -100.386 1077.31 -115.975C1081.54 -123.986 1084.65 -132.643 1088.04 -141.104C1092.5 -152.23 1097.1 -163.316 1100.96 -174.665C1104.82 -185.997 1108.3 -197.511 1111.11 -209.161C1115.62 -227.884 1120.22 -246.648 1123.28 -265.653C1125.57 -279.896 1125.26 -294.568 1126.57 -309.004C1127.2 -315.959 1129 -322.793 1130.09 -329.715C1131.23 -337.001 1133.14 -344.346 1133 -351.63C1132.53 -375.318 1134.14 -398.456 1141.52 -421.247C1144.98 -431.95 1145.06 -443.823 1146.68 -455.164C1163.71 -455.164 1180.74 -455.164 1197.77 -455.164Z" stroke="#8CFB53" stroke-width="1.30194"/>
<path fill-rule="evenodd" clip-rule="evenodd" d="M904.671 -455.164C903.871 -454.137 903.244 -452.861 902.246 -452.116C879.836 -435.349 863.281 -413.156 847.997 -389.771C837.649 -373.939 827.553 -357.922 816.836 -342.361C808.703 -330.551 799.783 -319.318 791.189 -307.849C773.111 -283.723 764.713 -255.111 755.762 -226.715C751.177 -212.17 749.327 -197.376 749.47 -182.112C749.901 -135.256 749.896 -88.3934 750.457 -41.5377C750.541 -34.5869 752.175 -27.489 754.09 -20.7635C759.933 -0.244449 765.182 20.4378 773.954 40.0351C778.349 49.8591 787.052 50.2085 792.652 44.4805C807.353 29.4458 821.365 13.6043 823.867 -8.9398C825.716 -25.6341 827.188 -42.4272 827.742 -59.2158C829.078 -99.7183 834.283 -139.69 843.608 -178.956C847.57 -195.643 855.285 -210.933 867.369 -223.66C877.588 -234.424 886.457 -246.547 896.478 -257.531C902.39 -264.011 908.858 -270.242 915.984 -275.186C933.249 -287.166 947.203 -302.422 957.697 -320.61C964.172 -331.832 967.991 -344.671 973.21 -356.69C985.018 -383.891 999.437 -409.251 1020.91 -429.779C1031.62 -440.012 1043.69 -441.382 1057.06 -437.438C1061.79 -436.043 1064.45 -433.353 1063.99 -427.998C1062.74 -413.768 1059.99 -400.365 1051.35 -388.325C1042.48 -375.941 1033.02 -363.223 1027.7 -349.089C1020.94 -331.108 1018.01 -311.575 1013.58 -292.671C1011.33 -283.047 1009.71 -273.258 1007.28 -263.687C1004.53 -252.898 996.315 -246.356 988.68 -239.322C982.081 -233.243 975.951 -226.614 969.699 -220.139C963.051 -213.25 956.863 -205.842 949.851 -199.385C925.216 -176.706 913.996 -148.374 914.236 -114.459C914.385 -93.4617 914.052 -72.3864 912.424 -51.472C911.346 -37.6026 906.105 -24.7078 899.807 -12.0336C893.63 0.396874 889.579 14.172 886.113 27.7679C882.713 41.1086 877.159 51.8244 865.842 59.9336C853.867 68.514 842.334 78.0208 831.833 88.4424C824.329 95.8873 818.564 105.3 812.516 114.195C797.86 135.756 781.767 155.819 759.786 169.898C755.09 172.904 750.079 175.557 744.925 177.607C728.785 184.025 717.204 197.064 703.596 207.18C673.369 229.651 650.622 259.677 626.182 288.006C623.123 291.553 620.753 295.736 618.085 299.641C608.235 314.065 593.73 320.935 578.028 325.599C571.465 327.548 568.588 325.429 569.897 318.597C575.187 291.003 570.084 262.196 579.266 235.119C581.345 228.993 582.991 222.624 585.783 216.857C593.983 199.935 602.559 183.204 611.234 166.538C612.951 163.241 615.499 160.267 618.129 157.642C632.697 143.102 646.411 127.975 654.697 108.401C656.596 103.916 659.92 100.087 662.495 95.8919C671.159 81.7674 673.603 66.0937 672.88 49.7373C672.147 33.1602 666.817 17.5578 663.362 1.53694C659.844 -14.7689 654.733 -30.3852 649.853 -46.2221C643.976 -65.2839 640.67 -84.9939 642.051 -105.513C643.242 -123.2 642.475 -141.074 641.835 -158.837C641.208 -176.175 643.133 -192.887 646.978 -209.887C654.917 -245.018 664.236 -279.97 665.703 -316.404C666.232 -329.556 667.426 -342.842 670.059 -355.686C671.895 -364.643 675.219 -374.088 680.444 -381.34C696.328 -403.378 713.411 -424.497 730.155 -445.867C732.807 -449.252 736.125 -452.08 739.135 -455.164C794.313 -455.164 849.491 -455.164 904.671 -455.164Z" stroke="#8CFB53" stroke-width="1.30194"/>
<path fill-rule="evenodd" clip-rule="evenodd" d="M513.48 -456.074C513.526 -454.17 513.786 -452.24 513.586 -450.366C511.031 -426.474 518.037 -405.405 531.141 -386.137C546.613 -363.396 557.985 -338.688 564.835 -311.73C567.044 -303.043 569.657 -294.447 572.431 -285.932C577.119 -271.531 576.755 -257.047 571.845 -243.09C566.428 -227.688 559.73 -212.768 553.537 -197.663C547.707 -183.436 541.69 -169.293 535.966 -155.021C529.83 -139.716 530.5 -123.603 531.048 -107.493C531.791 -85.7204 532.114 -63.9314 532.988 -42.1653C533.409 -31.6814 534.993 -21.2503 535.503 -10.7663C536.645 12.665 530.695 34.7416 522.692 56.3213C519.718 64.3395 516.582 72.3301 512.93 80.0309C505.596 95.4877 503.735 112.306 501.58 128.934C498.925 149.403 497.497 170.039 495.377 190.584C494.889 195.322 494.446 200.274 492.778 204.633C484.356 226.648 479.767 249.61 475.578 272.783C472.438 290.159 464.738 305.717 453.755 319.294C445.119 329.967 433.024 334.921 420.792 339.397C416.357 341.021 414.157 338.887 413.908 334.178C413.336 323.329 418.148 314.252 422.457 304.895C429.529 289.542 436.854 274.256 442.839 258.44C449.468 240.927 448.474 221.946 450.747 203.575C453.699 179.723 458.205 156.078 462.102 132.354C463.803 122.008 465.366 111.625 467.504 101.371C470.808 85.519 474.532 69.7586 478.115 53.9683C481.75 37.9479 486.258 22.0863 488.9 5.89342C492.88 -18.4948 490.929 -42.6322 481.331 -65.5806C476.077 -78.1438 473.964 -91.1602 473.915 -104.706C473.86 -119.827 473.214 -134.966 473.811 -150.055C474.097 -157.353 476.028 -164.766 478.282 -171.756C482.952 -186.25 489.066 -200.276 493.14 -214.927C495.382 -222.996 495.601 -232.001 495.109 -240.482C494.233 -255.554 493.091 -270.754 490.215 -285.514C487.979 -296.996 484.032 -308.457 478.951 -318.944C460.718 -356.567 448.352 -396.409 436.062 -436.316C434.047 -442.863 432.264 -449.487 430.372 -456.074C458.075 -456.074 485.777 -456.074 513.48 -456.074Z" stroke="#8CFB53" stroke-width="1.30194"/>
<path fill-rule="evenodd" clip-rule="evenodd" d="M169.576 -456.074C177.405 -443.158 185.725 -430.525 192.877 -417.217C197.042 -409.468 200.005 -400.835 202.329 -392.254C207.229 -374.153 215.857 -359.321 232.329 -350.158C237.028 -347.545 241.357 -344.203 245.796 -341.107C254.152 -335.285 258.512 -326.93 261.846 -317.142C268.494 -297.633 277.531 -279.219 289.488 -262.496C290.464 -261.129 291.694 -259.885 293.006 -258.856C304.174 -250.097 315.231 -241.172 326.632 -232.745C339.11 -223.523 350.86 -213.043 358.316 -199.457C365.422 -186.514 369.256 -171.64 374.477 -157.594C375.003 -156.182 374.928 -154.509 375.536 -153.15C383.208 -135.969 380.781 -118.96 375.62 -101.639C373.252 -93.6864 371.762 -85.1453 371.642 -76.8435C371.331 -54.8708 371.604 -32.8682 372.346 -10.9024C373.347 18.7073 372.574 48.0571 364.228 76.6961C363.642 78.7089 363.162 80.8275 362.179 82.6309C355.135 95.5288 351.69 109.623 349.921 124.103C346.616 151.171 331.183 170.802 314.177 189.895C305.506 199.63 295.372 201.737 283.578 200.373C278.548 199.793 276.297 197.608 276.004 192.002C275.294 178.481 278.106 167.124 288.555 157.608C306.669 141.112 315.418 119.45 318.792 94.8825C320.685 81.092 324.051 67.4856 327.292 53.9344C333.525 27.8764 332.175 1.92184 327.147 -24.0649C323.6 -42.387 316.406 -59.3288 309.531 -76.5076C295.248 -112.199 281.878 -148.287 268.386 -184.314C266.13 -190.332 265.316 -196.911 263.524 -203.136C260.632 -213.193 257.626 -223.222 254.407 -233.171C247.277 -255.203 233.399 -273.44 222.406 -293.29C220.208 -297.258 216.159 -300.228 212.678 -303.312C199.237 -315.226 184.366 -325.621 174.859 -341.663C172.857 -345.043 170.981 -348.594 169.66 -352.3C164.612 -366.47 160.139 -380.87 154.831 -394.934C149.304 -409.578 137.934 -419.787 128.035 -431.132C121.127 -439.054 115.029 -447.733 108.57 -456.074C128.903 -456.074 149.239 -456.074 169.576 -456.074Z" stroke="#8CFB53" stroke-width="1.30194"/>
<path fill-rule="evenodd" clip-rule="evenodd" d="M1273.2 -456.074C1269.35 -440.777 1261.11 -426.861 1260.51 -410.505C1259.17 -373.78 1257.07 -337.036 1265.76 -300.85C1269.5 -285.265 1273.79 -269.82 1277.46 -254.219C1281.18 -238.461 1283.71 -222.37 1288.13 -206.838C1291.98 -193.308 1297.56 -180.285 1302.73 -167.187C1304.74 -162.094 1307.26 -157.068 1310.36 -152.609C1319.55 -139.358 1323.57 -124.824 1323.58 -108.507C1323.59 -92.8417 1320.8 -77.8175 1317.61 -62.637C1312.34 -37.6129 1308.85 -12.2071 1300.04 11.9617C1295.45 24.5554 1288.04 35.1003 1280.35 45.6889C1272.7 56.2086 1265.8 67.3031 1258.57 78.1515C1256.69 80.9867 1255.22 84.2656 1252.88 86.611C1241.27 98.2527 1235.56 113.017 1231.21 128.616C1228.41 138.66 1222.72 146.395 1213.4 150.906C1211.41 151.872 1209.22 152.419 1207.09 153.047C1203.07 154.229 1200.94 152.794 1201.34 148.287C1203.53 123.659 1202.79 98.6321 1214.88 75.7303C1220.96 64.2219 1225.3 51.5777 1229.12 39.023C1231.34 31.7363 1231.37 23.6287 1231.69 15.8591C1232.26 2.01915 1233.31 -11.6576 1238.85 -24.5226C1239.68 -26.4449 1240.41 -28.4453 1241.5 -30.202C1251.79 -46.7415 1254.46 -64.987 1252.82 -84.1546C1250.46 -111.782 1248.3 -139.432 1245.37 -166.994C1244.22 -177.762 1241.05 -188.289 1239.1 -198.981C1238.14 -204.228 1237.78 -209.6 1237.28 -214.929C1234.26 -247.293 1231.42 -279.678 1228.23 -312.023C1224.7 -347.739 1224.69 -383.453 1227.91 -419.16C1228.85 -429.611 1230.79 -439.965 1232.16 -450.379C1232.41 -452.237 1232.1 -454.173 1232.05 -456.074H1273.2Z" stroke="#8CFB53" stroke-width="1.30194"/>
<path fill-rule="evenodd" clip-rule="evenodd" d="M1080.26 655.611H965.501C966.02 653.191 966.345 651.05 966.941 648.992C976.417 616.197 990.741 585.634 1006.68 555.751C1010.09 549.346 1011.66 541.862 1013.87 534.806C1015.18 530.632 1015.37 525.931 1017.3 522.141C1027.1 502.94 1034.57 482.162 1050.97 467.277C1056.78 462.006 1059.13 454.863 1061.75 447.605C1064.94 438.746 1068.41 429.692 1073.46 421.902C1085.65 403.115 1099.92 386.025 1116.74 371.348C1122.8 366.054 1129.27 361.859 1137.38 360.996C1145.96 360.086 1152.54 355.647 1158.17 349.026C1162.93 343.433 1168.78 338.778 1173.23 332.957C1181.22 322.484 1187.98 310.976 1196.25 300.753C1209.27 284.636 1217.36 265.95 1225.51 247.039C1233.85 227.702 1242.72 208.508 1252.91 190.167C1260.51 176.492 1270.47 164.209 1279.59 151.466C1281.31 149.069 1283.8 147.078 1286.28 145.488C1303.35 134.567 1316.69 120.101 1326.97 101.587C1326.97 103.919 1326.97 106.249 1326.97 108.581C1326.97 154.899 1327.37 201.224 1326.77 247.535C1326.5 268.519 1322.54 288.911 1310.99 307.054C1306.43 314.218 1302.42 321.886 1299.12 329.756C1292.6 345.316 1280.19 353.582 1266.25 360.626C1259.55 364.018 1252.69 367.836 1247.24 372.978C1231.8 387.538 1217.46 403.34 1200.07 415.635C1196.61 418.08 1193.78 421.58 1190.98 424.883C1183.51 433.695 1174.97 441.02 1165.77 447.991C1149.98 459.957 1137.82 475.796 1127.66 493.093C1119.97 506.174 1112.17 519.232 1105.4 532.824C1101.93 539.799 1100.62 547.925 1098.34 555.53C1097.31 558.961 1096.8 562.696 1095.15 565.773C1088.17 578.774 1084.82 592.665 1084.08 607.441C1083.35 621.953 1082.19 636.442 1081.16 650.937C1081.06 652.425 1080.6 653.886 1080.26 655.611Z" stroke="#8CFB53" stroke-width="1.30194"/>
<path fill-rule="evenodd" clip-rule="evenodd" d="M444.319 57.1533L457.095 57.1742V58.6348V70.7102C460.594 70.1511 464.264 69.7621 467.933 69.5432V57.2325H502.095C503.569 57.2325 504.765 58.6371 504.765 60.1139V61.0293C508.287 55.4342 504.011 53.5055 502.783 53.0839C504.011 52.6623 508.287 50.7359 504.765 45.1384V46.0562C504.765 47.533 503.569 48.4415 502.095 48.4415H441.551C438.243 48.4415 438.517 45.6509 438.517 45.6509C438.517 45.6509 436.256 57.1533 444.319 57.1533ZM505.984 74.5213L505.565 74.3606C503.022 73.4055 500.335 72.5763 497.562 71.8891V70.2889C497.562 68.854 496.351 67.687 494.862 67.687H469.949V59.2547H494.862C500.994 59.2547 505.984 64.2046 505.984 70.2889V74.5213ZM486.149 71.9274C489.433 72.2861 492.702 72.8195 495.924 73.5626C498.955 74.2614 501.946 75.1466 504.861 76.2414C507.634 77.2826 510.34 78.5171 512.934 79.9544C514.357 80.744 515.741 81.5523 517.03 82.5539C518.286 83.5299 519.454 84.6154 520.578 85.7405C521.62 86.7841 523.309 86.7841 524.351 85.7405L525 85.0906C523.539 91.5429 519.154 89.8798 517.989 89.3068C518.559 90.4761 520.222 94.8669 513.778 96.3275L514.425 95.6799C515.467 94.6363 515.344 92.9755 514.474 91.7829C513.829 90.8977 512.75 89.9473 511.749 89.1647C510.81 88.4286 509.798 87.7834 508.737 87.236C507.209 86.4486 505.664 85.6846 504.082 85.0091C501.265 83.8118 498.35 82.8544 495.384 82.1067C492.188 81.2984 488.936 80.7324 485.662 80.3573C484.83 80.2642 483.997 80.1826 483.164 80.1104C482.931 80.0918 482.699 80.0732 482.466 80.0569C482.303 80.0429 482.14 80.0312 481.978 80.0196C481.913 80.0149 481.849 80.0104 481.785 80.006L481.632 79.9956L481.632 79.9956L481.631 79.9955C481.523 79.9882 481.414 79.9809 481.305 79.973C481.216 79.9672 481.126 79.9619 481.036 79.9567C480.947 79.9514 480.857 79.9462 480.768 79.9404L480.14 79.9054C479.786 79.8868 479.435 79.8705 479.081 79.8565C478.928 79.8497 478.774 79.8452 478.623 79.8406L478.609 79.8402L478.608 79.8402C478.35 79.8309 478.092 79.8216 477.832 79.8146C477.676 79.8099 477.518 79.8053 477.36 79.803C477.092 79.796 476.825 79.7913 476.557 79.7867L476.551 79.7865C476.416 79.7843 476.283 79.782 476.15 79.782C475.755 79.7773 475.359 79.775 474.966 79.775H474.95C474.475 79.775 474.001 79.7773 473.529 79.7843L473.096 79.7913C472.763 79.796 472.433 79.803 472.102 79.8123L471.612 79.8262C471.288 79.8356 470.965 79.8472 470.644 79.8612C470.601 79.8625 470.557 79.8641 470.514 79.8657L470.413 79.8695L470.338 79.8724C470.289 79.8742 470.241 79.876 470.193 79.8775C464.875 80.1104 459.748 80.737 454.96 81.7177C454.59 81.7946 454.223 81.8738 453.855 81.953C453.79 81.9677 453.725 81.9819 453.66 81.9961L453.66 81.9961L453.66 81.9961L453.66 81.9961L453.66 81.9961L453.66 81.9962L453.66 81.9962C453.581 82.0134 453.502 82.0306 453.425 82.0485C453.055 82.1323 452.69 82.2162 452.324 82.3047C452.194 82.335 452.064 82.3653 451.936 82.3979C448.879 83.1456 445.985 84.0471 443.298 85.0929V76.1319C445.967 75.2327 448.781 74.4547 451.71 73.8002V73.7955C451.734 73.7905 451.757 73.7857 451.78 73.781L451.781 73.7809C451.833 73.7702 451.885 73.7595 451.938 73.7466L451.94 73.7463L451.94 73.7462C452.093 73.7137 452.246 73.6813 452.396 73.6488C452.724 73.5789 453.055 73.509 453.385 73.4415L453.936 73.3297C454.246 73.2691 454.555 73.2085 454.865 73.1503L455.013 73.1224L455.162 73.0944V73.0967C459.876 72.2279 464.84 71.6712 469.946 71.4522V71.4499C469.967 71.4499 469.986 71.4499 470.007 71.4475C470.33 71.4336 470.653 71.4219 470.977 71.4126C471.118 71.4056 471.26 71.4009 471.402 71.3986C471.684 71.3893 471.965 71.38 472.249 71.3753C472.401 71.3707 472.553 71.3681 472.705 71.3655L472.773 71.3643L472.885 71.3623L472.931 71.3613L472.944 71.3611C473.153 71.3565 473.361 71.352 473.57 71.3497C474.029 71.345 474.489 71.3427 474.95 71.3427H475.555C476.127 71.3474 476.699 71.3544 477.271 71.366C477.404 71.3707 477.534 71.373 477.664 71.3753L477.665 71.3753C478.223 71.3893 478.781 71.4056 479.34 71.4289H479.367C479.989 71.4545 480.607 71.4848 481.229 71.5221C481.259 71.5221 481.291 71.5244 481.324 71.5267C481.936 71.564 482.548 71.6036 483.159 71.6525H483.164C484.16 71.7294 485.155 71.8202 486.149 71.9274ZM470.117 120.42C471.713 120.49 473.325 120.527 474.949 120.527C478.527 120.527 482.107 120.348 485.664 119.943C488.935 119.57 492.189 119.002 495.383 118.196C495.412 118.188 495.441 118.18 495.47 118.172C495.499 118.165 495.528 118.157 495.558 118.149V126.819C492.454 127.52 489.309 128.028 486.148 128.373C482.63 128.757 479.092 128.939 475.554 128.957C475.354 128.96 475.151 128.96 474.949 128.96C473.332 128.96 471.711 128.925 470.117 128.86V120.42ZM488.747 92.1903V93.108C488.747 94.5825 487.551 95.5469 486.079 95.5469H468.006V82.0109C464.3 82.2555 460.69 82.6934 457.231 83.3247V95.2208C457.165 98.4492 454.195 99.7677 453.111 100.138V100.14C454.192 100.511 457.224 101.824 457.305 105.032V105.274C457.305 105.338 457.303 105.401 457.301 105.468L457.301 105.469L457.3 105.482H457.305V130.189H468.132V104.259H486.079C487.551 104.259 488.747 105.689 488.747 107.163V108.081C492.271 102.486 487.996 100.557 486.765 100.136C487.996 99.7141 492.271 97.7854 488.747 92.1903ZM505.983 95.182C506.044 98.4128 509.04 99.7312 510.124 100.104C509.04 100.477 506.044 101.797 505.983 105.028V129.596C505.983 135.68 500.993 140.63 494.861 140.63H443.992C437.862 140.63 432.873 135.68 432.873 129.596V121.902C433.684 122.335 434.527 122.759 435.394 123.169C437.262 124.047 439.235 124.858 441.294 125.596V129.596C441.294 131.031 442.506 132.198 443.992 132.198H494.861C496.35 132.198 497.541 131.031 497.541 129.596L497.562 105.445H497.541C497.746 101.909 494.538 100.493 493.407 100.104C494.538 99.7172 497.764 98.301 497.562 94.7627V84.793C499.558 85.394 501.48 86.0835 503.296 86.8568C504.22 87.2505 505.125 87.6744 505.983 88.0961V95.182ZM455.34 127.24L455.324 118.659C449.594 117.508 444.344 115.847 439.838 113.723C431.663 109.87 426.973 104.925 426.966 100.15C426.971 97.6155 428.297 95.0299 430.763 92.5864L430.861 92.3512L430.868 92.2324V81.883C424.412 85.9548 420.346 90.8837 419.022 96.2575L419.015 96.2435C418.431 98.743 415.963 99.8191 415 100.15V100.152C415.951 100.478 418.378 101.534 418.997 103.975L419.001 103.965C420.634 110.737 426.615 116.809 436.251 121.352C441.794 123.965 448.285 125.952 455.34 127.24ZM432.872 105.059C432.812 101.828 429.816 100.508 428.731 100.135C429.816 99.7623 432.812 97.8895 432.872 94.6563V94.4653C432.872 94.3908 432.87 94.3162 432.865 94.2394H432.872V70.2889C432.872 64.2046 437.862 59.2547 443.994 59.2547H455.181V67.687H443.994C442.505 67.687 441.293 68.854 441.293 70.2889V94.2394H441.314C441.11 97.7777 444.318 99.7483 445.448 100.135C444.318 100.524 441.091 101.94 441.293 105.476V112.18C441.221 112.147 441.148 112.115 441.075 112.082C440.946 112.025 440.817 111.967 440.691 111.908C437.476 110.391 434.831 108.695 432.872 106.941V105.476V105.25V105.059ZM517.988 110.995C518.56 109.825 520.221 105.435 513.777 103.974L514.426 104.622C515.469 105.665 515.343 107.326 514.475 108.516C513.829 109.402 512.751 110.354 511.751 111.137C510.809 111.873 509.799 112.518 508.736 113.066C508.487 113.194 508.238 113.32 507.99 113.445V122.788C509.674 122.052 511.325 121.237 512.933 120.347C514.357 119.558 515.743 118.749 517.03 117.748C518.286 116.772 519.453 115.686 520.577 114.561C521.619 113.518 523.31 113.518 524.353 114.561L524.999 115.211C523.541 108.759 519.156 110.422 517.988 110.995ZM476.577 144.875H484.566C491.747 144.875 489.732 155.138 489.732 155.138C489.732 155.138 489.979 152.583 487.032 152.583H476.782L469.503 152.634C466.311 152.634 464.222 151.779 462.868 150.533C461.514 151.779 459.425 152.634 456.234 152.634L448.955 152.583H441.429C438.482 152.583 438.726 155.138 438.726 155.138C438.726 155.138 436.714 144.875 443.895 144.875H449.16V144.878L454.982 144.875C456.35 144.887 457.464 143.825 457.467 142.455V142.355H462.038H463.908H468.27V142.455C468.272 143.825 469.387 144.887 470.754 144.875L476.577 144.878V144.875Z" fill="white"/>
<path d="M863.867 52.6228V94.5355H855.148V52.6228H863.867Z" fill="white"/>
<path d="M850.21 52.6228V94.5355H841.492V52.6228H850.21Z" fill="white"/>
<path d="M819.072 95.129C817.066 95.129 815.279 94.781 813.71 94.0852C812.141 93.3758 810.9 92.332 809.985 90.9541C809.085 89.5624 808.635 87.8297 808.635 85.7559C808.635 84.0095 808.955 82.5429 809.597 81.3559C810.238 80.1689 811.111 79.2139 812.216 78.4908C813.321 77.7677 814.576 77.2219 815.982 76.8536C817.401 76.4852 818.888 76.226 820.443 76.0759C822.271 75.8849 823.745 75.7075 824.864 75.5438C825.982 75.3664 826.794 75.1072 827.299 74.7661C827.804 74.425 828.056 73.9202 828.056 73.2517V73.1289C828.056 71.8328 827.647 70.83 826.828 70.1205C826.023 69.411 824.877 69.0563 823.39 69.0563C821.821 69.0563 820.573 69.4042 819.645 70.1C818.717 70.7822 818.103 71.6418 817.803 72.6787L809.74 72.0238C810.149 70.1137 810.954 68.4628 812.155 67.0712C813.355 65.6659 814.904 64.5881 816.8 63.8377C818.71 63.0737 820.921 62.6917 823.431 62.6917C825.177 62.6917 826.849 62.8963 828.445 63.3056C830.055 63.7149 831.481 64.3493 832.722 65.2089C833.977 66.0684 834.967 67.1735 835.69 68.5242C836.413 69.8613 836.774 71.4644 836.774 73.3335V94.5355H828.506V90.1764H828.261C827.756 91.1587 827.081 92.0251 826.235 92.7755C825.389 93.5122 824.372 94.092 823.186 94.515C821.999 94.9243 820.627 95.129 819.072 95.129ZM821.569 89.1122C822.851 89.1122 823.984 88.8598 824.966 88.355C825.948 87.8365 826.719 87.1407 827.279 86.2675C827.838 85.3944 828.118 84.4052 828.118 83.3001V79.9643C827.845 80.1416 827.47 80.3053 826.992 80.4554C826.528 80.5919 826.003 80.7215 825.416 80.8443C824.83 80.9534 824.243 81.0557 823.656 81.1512C823.07 81.2331 822.537 81.3081 822.06 81.3764C821.037 81.5264 820.143 81.7652 819.379 82.0926C818.615 82.4201 818.021 82.8635 817.599 83.4229C817.176 83.9686 816.964 84.6508 816.964 85.4694C816.964 86.6564 817.394 87.5637 818.253 88.1913C819.127 88.8052 820.232 89.1122 821.569 89.1122Z" fill="white"/>
<path d="M775.68 94.5355V52.6228H784.398V68.381H784.664C785.046 67.5351 785.598 66.6756 786.322 65.8024C787.058 64.9156 788.013 64.1788 789.187 63.5921C790.374 62.9918 791.847 62.6917 793.607 62.6917C795.899 62.6917 798.014 63.292 799.951 64.4926C801.889 65.6796 803.437 67.4737 804.597 69.8749C805.757 72.2626 806.337 75.2573 806.337 78.8592C806.337 82.3655 805.77 85.3262 804.638 87.741C803.519 90.1423 801.991 91.9637 800.054 93.2052C798.13 94.4332 795.974 95.0471 793.587 95.0471C791.895 95.0471 790.456 94.7674 789.269 94.208C788.095 93.6487 787.133 92.946 786.383 92.1001C785.633 91.2406 785.06 90.3742 784.664 89.5011H784.275V94.5355H775.68ZM784.214 78.8182C784.214 80.6874 784.473 82.3178 784.991 83.7094C785.51 85.101 786.26 86.1857 787.243 86.9634C788.225 87.7274 789.419 88.1094 790.824 88.1094C792.243 88.1094 793.443 87.7206 794.426 86.9429C795.408 86.1516 796.152 85.0601 796.657 83.6685C797.175 82.2632 797.434 80.6465 797.434 78.8182C797.434 77.0036 797.182 75.4074 796.677 74.0294C796.172 72.6514 795.429 71.5736 794.446 70.7959C793.464 70.0182 792.256 69.6294 790.824 69.6294C789.405 69.6294 788.204 70.0046 787.222 70.755C786.253 71.5053 785.51 72.5695 784.991 73.9475C784.473 75.3255 784.214 76.9491 784.214 78.8182Z" fill="white"/>
<path d="M771.208 63.101V69.6499H752.277V63.101H771.208ZM756.575 55.5698H765.293V84.876C765.293 85.6809 765.416 86.3085 765.662 86.7588C765.907 87.1953 766.248 87.5023 766.685 87.6797C767.135 87.8571 767.654 87.9457 768.24 87.9457C768.649 87.9457 769.059 87.9116 769.468 87.8434C769.877 87.7615 770.191 87.7002 770.409 87.6592L771.781 94.1467C771.344 94.2831 770.73 94.44 769.939 94.6174C769.147 94.8084 768.186 94.9244 767.053 94.9653C764.952 95.0471 763.11 94.7675 761.528 94.1262C759.959 93.485 758.738 92.489 757.864 91.1383C756.991 89.7876 756.561 88.0822 756.575 86.022V55.5698Z" fill="white"/>
<path d="M735.394 95.1494C732.215 95.1494 729.465 94.4741 727.146 93.1234C724.84 91.759 723.06 89.8626 721.805 87.434C720.549 84.9919 719.922 82.1609 719.922 78.941C719.922 75.6939 720.549 72.856 721.805 70.4275C723.06 67.9853 724.84 66.0889 727.146 64.7382C729.465 63.3738 732.215 62.6917 735.394 62.6917C738.572 62.6917 741.315 63.3738 743.621 64.7382C745.94 66.0889 747.727 67.9853 748.982 70.4275C750.238 72.856 750.865 75.6939 750.865 78.941C750.865 82.1609 750.238 84.9919 748.982 87.434C747.727 89.8626 745.94 91.759 743.621 93.1234C741.315 94.4741 738.572 95.1494 735.394 95.1494ZM735.434 88.3959C736.881 88.3959 738.088 87.9866 739.057 87.168C740.025 86.3357 740.755 85.2033 741.247 83.7708C741.751 82.3382 742.004 80.7078 742.004 78.8796C742.004 77.0514 741.751 75.421 741.247 73.9884C740.755 72.5559 740.025 71.4235 739.057 70.5912C738.088 69.759 736.881 69.3428 735.434 69.3428C733.975 69.3428 732.747 69.759 731.751 70.5912C730.768 71.4235 730.025 72.5559 729.52 73.9884C729.029 75.421 728.783 77.0514 728.783 78.8796C728.783 80.7078 729.029 82.3382 729.52 83.7708C730.025 85.2033 730.768 86.3357 731.751 87.168C732.747 87.9866 733.975 88.3959 735.434 88.3959Z" fill="white"/>
<path d="M702.095 95.1494C698.916 95.1494 696.167 94.4741 693.847 93.1234C691.542 91.759 689.761 89.8626 688.506 87.434C687.251 84.9919 686.623 82.1609 686.623 78.941C686.623 75.6939 687.251 72.856 688.506 70.4275C689.761 67.9853 691.542 66.0889 693.847 64.7382C696.167 63.3738 698.916 62.6917 702.095 62.6917C705.274 62.6917 708.016 63.3738 710.322 64.7382C712.641 66.0889 714.428 67.9853 715.684 70.4275C716.939 72.856 717.566 75.6939 717.566 78.941C717.566 82.1609 716.939 84.9919 715.684 87.434C714.428 89.8626 712.641 91.759 710.322 93.1234C708.016 94.4741 705.274 95.1494 702.095 95.1494ZM702.136 88.3959C703.582 88.3959 704.789 87.9866 705.758 87.168C706.727 86.3357 707.457 85.2033 707.948 83.7708C708.453 82.3382 708.705 80.7078 708.705 78.8796C708.705 77.0514 708.453 75.421 707.948 73.9884C707.457 72.5559 706.727 71.4235 705.758 70.5912C704.789 69.759 703.582 69.3428 702.136 69.3428C700.676 69.3428 699.448 69.759 698.452 70.5912C697.47 71.4235 696.726 72.5559 696.221 73.9884C695.73 75.421 695.484 77.0514 695.484 78.8796C695.484 80.7078 695.73 82.3382 696.221 83.7708C696.726 85.2033 697.47 86.3357 698.452 87.168C699.448 87.9866 700.676 88.3959 702.136 88.3959Z" fill="white"/>
<path d="M658.697 94.5355V52.6228H686.448V59.9289H667.559V69.9159H684.606V77.2219H667.559V94.5355H658.697Z" fill="white"/>
<path d="M640.464 95.1494C637.23 95.1494 634.447 94.4945 632.114 93.1848C629.794 91.8613 628.007 89.9922 626.752 87.5773C625.497 85.1488 624.869 82.2768 624.869 78.9615C624.869 75.728 625.497 72.8901 626.752 70.448C628.007 68.0058 629.774 66.1025 632.052 64.7382C634.345 63.3738 637.032 62.6917 640.116 62.6917C642.19 62.6917 644.12 63.0259 645.907 63.6944C647.708 64.3493 649.277 65.3385 650.614 66.6619C651.965 67.9853 653.016 69.6498 653.766 71.6554C654.516 73.6473 654.892 75.9804 654.892 78.6545V81.0489H628.348V75.6461H646.685C646.685 74.3909 646.412 73.279 645.866 72.3103C645.321 71.3416 644.563 70.5844 643.595 70.0386C642.64 69.4793 641.528 69.1996 640.259 69.1996C638.936 69.1996 637.762 69.5066 636.739 70.1205C635.729 70.7208 634.938 71.5326 634.365 72.5559C633.792 73.5655 633.499 74.6911 633.485 75.9326V81.0694C633.485 82.6247 633.771 83.9686 634.345 85.101C634.931 86.2334 635.757 87.1066 636.821 87.7206C637.885 88.3345 639.147 88.6415 640.607 88.6415C641.576 88.6415 642.462 88.5051 643.267 88.2322C644.072 87.9593 644.761 87.55 645.334 87.0043C645.907 86.4585 646.344 85.79 646.644 84.9987L654.707 85.5308C654.298 87.4682 653.459 89.1599 652.19 90.6061C650.935 92.0387 649.311 93.1575 647.319 93.9624C645.341 94.7538 643.056 95.1494 640.464 95.1494Z" fill="white"/>
<path d="M601.052 76.3624V94.5355H592.334V63.101H600.643V68.647H601.011C601.707 66.8188 602.874 65.3726 604.511 64.3084C606.148 63.2306 608.133 62.6917 610.466 62.6917C612.649 62.6917 614.552 63.1692 616.176 64.1242C617.799 65.0793 619.062 66.4436 619.962 68.2172C620.862 69.9773 621.313 72.0783 621.313 74.5205V94.5355H612.595V76.0759C612.608 74.1521 612.117 72.6514 611.121 71.5735C610.125 70.4821 608.754 69.9363 607.008 69.9363C605.834 69.9363 604.797 70.1887 603.897 70.6935C603.01 71.1983 602.314 71.9351 601.809 72.9038C601.318 73.8588 601.066 75.0117 601.052 76.3624Z" fill="white"/>
<path d="M587.979 73.5792C587.979 78.1497 587.112 82.0381 585.38 85.2443C583.661 88.4505 581.314 90.8995 578.34 92.5913C575.379 94.2695 572.05 95.1085 568.353 95.1085C564.628 95.1085 561.285 94.2626 558.325 92.5709C555.364 90.8791 553.024 88.4301 551.305 85.2239C549.586 82.0176 548.727 78.1361 548.727 73.5792C548.727 69.0086 549.586 65.1202 551.305 61.914C553.024 58.7078 555.364 56.2656 558.325 54.5875C561.285 52.8957 564.628 52.0498 568.353 52.0498C572.05 52.0498 575.379 52.8957 578.34 54.5875C581.314 56.2656 583.661 58.7078 585.38 61.914C587.112 65.1202 587.979 69.0086 587.979 73.5792ZM578.995 73.5792C578.995 70.6185 578.551 68.1218 577.664 66.0889C576.791 64.056 575.556 62.5143 573.96 61.4638C572.364 60.4132 570.495 59.888 568.353 59.888C566.211 59.888 564.341 60.4132 562.745 61.4638C561.149 62.5143 559.907 64.056 559.021 66.0889C558.147 68.1218 557.711 70.6185 557.711 73.5792C557.711 76.5398 558.147 79.0365 559.021 81.0694C559.907 83.1023 561.149 84.644 562.745 85.6946C564.341 86.7451 566.211 87.2704 568.353 87.2704C570.495 87.2704 572.364 86.7451 573.96 85.6946C575.556 84.644 576.791 83.1023 577.664 81.0694C578.551 79.0365 578.995 76.5398 578.995 73.5792Z" fill="white"/>
<path d="M638.213 147.581V105.668H646.931V121.426H647.197C647.579 120.58 648.132 119.721 648.855 118.848C649.592 117.961 650.547 117.224 651.72 116.637C652.907 116.037 654.38 115.737 656.14 115.737C658.432 115.737 660.547 116.337 662.485 117.538C664.422 118.725 665.97 120.519 667.13 122.92C668.29 125.308 668.87 128.302 668.87 131.904C668.87 135.411 668.304 138.371 667.171 140.786C666.052 143.187 664.524 145.009 662.587 146.25C660.663 147.478 658.508 148.092 656.12 148.092C654.428 148.092 652.989 147.813 651.802 147.253C650.628 146.694 649.667 145.991 648.916 145.145C648.166 144.286 647.593 143.419 647.197 142.546H646.808V147.581H638.213ZM646.747 131.863C646.747 133.733 647.006 135.363 647.525 136.755C648.043 138.146 648.793 139.231 649.776 140.009C650.758 140.773 651.952 141.155 653.357 141.155C654.776 141.155 655.977 140.766 656.959 139.988C657.941 139.197 658.685 138.105 659.19 136.714C659.708 135.308 659.967 133.692 659.967 131.863C659.967 130.049 659.715 128.453 659.21 127.075C658.705 125.697 657.962 124.619 656.979 123.841C655.997 123.063 654.79 122.675 653.357 122.675C651.938 122.675 650.738 123.05 649.755 123.8C648.787 124.551 648.043 125.615 647.525 126.993C647.006 128.371 646.747 129.994 646.747 131.863Z" fill="white"/>
<path d="M624.402 134.197V116.146H633.121V147.581H624.75V141.871H624.423C623.713 143.713 622.533 145.193 620.882 146.312C619.245 147.431 617.246 147.99 614.886 147.99C612.785 147.99 610.936 147.513 609.34 146.557C607.744 145.602 606.495 144.245 605.595 142.485C604.708 140.725 604.258 138.617 604.244 136.161V116.146H612.962V134.606C612.976 136.461 613.474 137.928 614.456 139.006C615.439 140.084 616.755 140.623 618.406 140.623C619.457 140.623 620.439 140.384 621.353 139.906C622.267 139.415 623.004 138.692 623.563 137.737C624.136 136.782 624.416 135.602 624.402 134.197Z" fill="white"/>
<path d="M599.306 105.668V147.581H590.588V105.668H599.306Z" fill="white"/>
<path d="M586.444 120.342H577.48C577.316 119.182 576.982 118.152 576.477 117.251C575.973 116.337 575.324 115.559 574.533 114.918C573.742 114.277 572.828 113.786 571.791 113.445C570.768 113.104 569.656 112.933 568.455 112.933C566.286 112.933 564.396 113.472 562.786 114.55C561.176 115.614 559.928 117.169 559.041 119.216C558.154 121.249 557.711 123.718 557.711 126.624C557.711 129.612 558.154 132.123 559.041 134.156C559.941 136.188 561.197 137.723 562.807 138.76C564.417 139.797 566.279 140.316 568.394 140.316C569.581 140.316 570.679 140.159 571.688 139.845C572.712 139.531 573.619 139.074 574.41 138.474C575.202 137.86 575.857 137.116 576.375 136.243C576.907 135.37 577.275 134.374 577.48 133.255L586.444 133.296C586.212 135.22 585.632 137.075 584.704 138.863C583.79 140.636 582.556 142.226 581 143.631C579.458 145.023 577.617 146.128 575.475 146.946C573.346 147.751 570.938 148.154 568.25 148.154C564.512 148.154 561.169 147.308 558.222 145.616C555.289 143.924 552.97 141.475 551.264 138.269C549.572 135.063 548.727 131.181 548.727 126.624C548.727 122.054 549.586 118.165 551.305 114.959C553.024 111.753 555.357 109.311 558.304 107.633C561.251 105.941 564.567 105.095 568.25 105.095C570.679 105.095 572.93 105.436 575.004 106.118C577.091 106.8 578.94 107.796 580.55 109.106C582.16 110.402 583.47 111.992 584.479 113.875C585.502 115.757 586.157 117.913 586.444 120.342Z" fill="white"/>
</g>
</g>
<defs>
<clipPath id="clip0_931_19703">
<rect width="1280" height="198" fill="white" transform="translate(0 0.796143)"/>
</clipPath>
<clipPath id="clip1_931_19703">
<rect width="1283" height="952.181" fill="white" transform="translate(-2 -375.862)"/>
</clipPath>
</defs>
</svg>
